Coordinates
version=1
nRows=6
nColumns=34
inDegrees=yes

Units are S.I. units (second, meters, Newtons, ...)
If the header above contains a line with 'inDegrees', this indicates whether rotational values are in degrees (yes) or radians (no).

endheader
time	pelvis_tilt	pelvis_list	pelvis_rotation	pelvis_tx	pelvis_ty	pelvis_tz	hip_flexion_r	hip_adduction_r	hip_rotation_r	knee_angle_r	ankle_angle_r	subtalar_angle_r	mtp_angle_r	hip_flexion_l	hip_adduction_l	hip_rotation_l	knee_angle_l	ankle_angle_l	subtalar_angle_l	mtp_angle_l	lumbar_extension	lumbar_bending	lumbar_rotation	arm_flex_r	arm_add_r	arm_rot_r	elbow_flex_r	pro_sup_r	arm_flex_l	arm_add_l	arm_rot_l	elbow_flex_l	pro_sup_l
      5.25000000	      3.49152597	     -5.04177966	     -9.61791335	     -2.82346345	      0.87921550	      0.19027968	    -22.69967930	    -14.67472504	    -10.07043501	     41.21071644	     -0.15182427	    -15.43775969	      0.00000000	     41.53908806	     -7.97901115	      8.99968270	     53.22659545	      2.80904231	    -17.74703407	      0.00000000	      4.47821794	    -25.10957648	     -7.11660134	   -116.80808160	   -137.48445587	    115.59195072	    124.34857983	     67.47326409	   -395.59505343	    -35.65919081	   -407.92531334	     95.71214197	     83.55714097
      5.26666670	      1.01142613	     -6.89344259	     -4.89310016	     -2.81009071	      0.87929720	      0.18689890	    -20.32195891	     -9.36797206	    -11.90594342	     44.23053279	     16.88673276	      0.25080571	      0.00000000	     43.39277192	     -7.68757164	     11.51637014	     51.63250069	      4.53714944	    -13.92896570	      0.00000000	      4.65693923	    -26.14923149	     -6.67984622	   -101.18665322	   -140.33318208	    127.51935859	    104.53805527	     74.42626820	   -387.77456010	    -40.30125958	   -402.45102604	     91.89812402	     82.64924374
      5.28333330	     -2.09584127	     -8.73151231	     -0.97589286	     -2.80170289	      0.88966913	      0.17891103	    -16.30692692	     -5.39316159	    -15.13986972	     47.95165014	     25.75340183	     13.28682382	      0.00000000	     45.40338896	     -7.60520271	     13.54963484	     48.37657156	      6.13030540	     -9.54471507	      0.00000000	      4.86860997	    -28.16273746	     -3.06221846	    -91.49130613	   -138.56604766	    128.03121503	     82.64916430	    106.07927843	   -372.15222467	    -45.26701190	   -387.61480455	     87.12738207	     82.33909022
      5.30000000	     -4.34555133	    -12.49252203	      2.73857267	     -2.79713458	      0.89936317	      0.17774112	     -9.52757667	     -1.68573239	    -19.97801709	     53.73469351	     26.19163318	     20.13783895	      0.00000000	     46.63434254	     -9.36411851	     16.79941842	     44.06697839	      6.63087216	     -5.20630523	      0.00000000	      2.98820262	    -27.57381012	     -7.07973308	    -81.77279193	   -143.60078213	    134.61396535	     53.01364281	    111.68939866	   -364.88342880	    -44.58991692	   -384.89466271	     82.35480622	     83.07132929
      5.31666670	     -6.73556775	    -16.13695180	      5.48614344	     -2.78920768	      0.90825451	      0.16988269	     -2.77194216	      0.04477414	    -24.71658429	     58.58086068	     14.02545390	     22.45084410	      0.00000000	     48.47244598	    -11.52427090	     18.06846104	     39.69815024	      3.68735281	     -2.96280478	      0.00000000	      1.83700464	    -26.82508552	     -4.80744861	    -76.40659848	   -139.92266699	    152.12697358	     36.04567179	    119.74817918	   -349.50322752	    -41.45057009	   -373.13944418	     75.74359593	     87.36244414
      5.33333330	     -8.73012915	    -19.92155029	      7.36498376	     -2.78625565	      0.92057008	      0.16627129	      3.99913925	      0.19399595	    -30.64365202	     63.15286362	     -1.38177292	     14.56961606	      0.00000000	     50.13405193	    -14.51507569	     17.56910991	     34.98150463	      0.14111960	     -4.01969598	      0.00000000	      0.69919556	    -24.85846888	     -5.80509520	    -72.75436743	   -144.95606105	    182.34047671	     25.78485697	    119.74817918	   -342.70997243	    -36.35039405	   -371.71376432	     70.98006764	     91.03169196
